<svg width="251" height="311" viewBox="0 0 251 311" fill="none" xmlns="http://www.w3.org/2000/svg">
<path d="M162.613 65.4336C213.526 81.3314 250.479 128.85 250.479 185.001L250.47 186.619C249.603 255.041 193.868 310.24 125.24 310.24L123.621 310.23C55.7378 309.371 0.869623 254.502 0.00976562 186.619L0 185.001C0.000173575 129.007 36.7472 81.5966 87.4404 65.5674L82.2451 90.0127C46.1249 106.388 21.0002 142.761 21 185.001C21.0003 242.571 67.6703 289.24 125.24 289.24C182.81 289.24 229.479 242.571 229.479 185.001C229.479 138.958 199.627 99.8881 158.223 86.0879L162.613 65.4336ZM123.927 0C125.307 0.000217747 126.194 1.09496 125.907 2.44531L100.389 122.503H147.984C149.365 122.503 150.252 123.598 149.965 124.948L149.076 129.127V129.129L123.869 247.719C123.64 248.799 122.557 249.675 121.453 249.676H100.405C99.3007 249.676 98.5907 248.799 98.8203 247.719L120.229 147.004H72.6328C71.2522 147.004 70.3654 145.909 70.6523 144.559L74.8203 124.948C74.8208 124.946 74.8208 124.944 74.8213 124.941L100.859 2.44531C101.146 1.09491 102.498 0.000135181 103.879 0H123.927Z" fill="#4285F4"/>
</svg>
