<svg width="265" height="91" viewBox="0 0 265 91" fill="none" xmlns="http://www.w3.org/2000/svg">
<path d="M67.0196 26.9902C67.0196 25.388 67.5811 24.0254 68.7042 22.9023C69.8272 21.7793 71.1824 21.2178 72.7696 21.2178H97.1846V24.7666H72.7696C72.1706 24.7666 71.654 24.9837 71.2198 25.418C70.7856 25.8522 70.5684 26.3763 70.5684 26.9902V34.7842H97.1846V38.3555H70.5684V53H67.0196V26.9902ZM103.047 21.2178H106.618V53H103.047V21.2178ZM138.94 34.8066C140.587 34.8066 141.994 35.3981 143.162 36.5811C144.33 37.749 144.914 39.1566 144.914 40.8037V47.0254C144.914 48.6725 144.33 50.0801 143.162 51.248C141.994 52.416 140.587 53 138.94 53H112.481V49.4512H138.94C139.598 49.4512 140.167 49.2116 140.647 48.7324C141.126 48.2533 141.365 47.6842 141.365 47.0254V40.8037C141.365 40.1299 141.126 39.5609 140.647 39.0967C140.167 38.6175 139.598 38.3779 138.94 38.3779H118.231C116.643 38.3779 115.288 37.8164 114.165 36.6934C113.042 35.5703 112.481 34.2152 112.481 32.6279V27.0127C112.481 25.4255 113.042 24.0628 114.165 22.9248C115.288 21.8018 116.643 21.2402 118.231 21.2402H144.914V24.8115H118.231C117.632 24.8115 117.115 25.0286 116.681 25.4629C116.246 25.8822 116.029 26.3988 116.029 27.0127V32.6279C116.029 33.2269 116.246 33.7435 116.681 34.1777C117.115 34.597 117.632 34.8066 118.231 34.8066H138.94ZM183.165 53H179.616V38.3555H154.325V53H150.754V21.2178H154.325V34.7842H179.616V21.2178H183.165V53ZM189.027 26.9902C189.027 25.388 189.589 24.0254 190.712 22.9023C191.835 21.7793 193.19 21.2178 194.777 21.2178H219.192V24.7666H194.777C194.178 24.7666 193.662 24.9837 193.228 25.418C192.793 25.8522 192.576 26.3763 192.576 26.9902V34.7842H219.192V38.3555H192.576V49.4512H219.192V53H189.027V26.9902ZM256.949 37.165C259.719 39.1566 261.105 41.8444 261.105 45.2285V53H257.533V45.2285C257.533 43.4766 256.912 41.9792 255.669 40.7363C254.426 39.4935 252.936 38.8721 251.199 38.8721H228.626V53H225.055V26.7656C225.055 25.3132 225.616 24.0254 226.739 22.9023C227.877 21.7793 229.24 21.2178 230.827 21.2178H251.199C254.254 21.2178 256.695 22.1836 258.522 24.1152C260.184 25.7025 261.015 27.679 261.015 30.0449C261.015 33.0397 259.66 35.4131 256.949 37.165ZM251.199 35.3232C253.191 35.3232 254.756 34.8216 255.894 33.8184C256.942 32.7702 257.466 31.5124 257.466 30.0449C257.466 28.5924 256.957 27.432 255.939 26.5635C254.801 25.3656 253.221 24.7666 251.199 24.7666H230.827C230.213 24.7666 229.689 24.9837 229.255 25.418C228.836 25.8522 228.626 26.3014 228.626 26.7656V35.3232H251.199ZM69.455 74V63.0725H76.3525V64.142H70.695V67.924H76.027V68.9935H70.695V72.9305H76.3525V74H69.455ZM78.4916 74V63.0725H79.7626V72.884H85.3271V74H78.4916ZM86.9077 74V63.0725H93.8052V64.142H88.1477V67.924H93.4797V68.9935H88.1477V72.9305H93.8052V74H86.9077ZM100.626 74.1395C99.5517 74.1395 98.632 73.9122 97.8674 73.4575C97.1027 73.0028 96.5137 72.357 96.1004 71.52C95.6974 70.683 95.4959 69.6858 95.4959 68.5285C95.4959 67.3712 95.6974 66.3792 96.1004 65.5525C96.5137 64.7155 97.1027 64.0697 97.8674 63.615C98.632 63.1603 99.5517 62.933 100.626 62.933C101.381 62.933 102.078 63.0518 102.719 63.2895C103.36 63.5272 103.897 63.8733 104.331 64.328L103.835 65.3665C103.36 64.9222 102.864 64.6018 102.347 64.4055C101.841 64.1988 101.277 64.0955 100.657 64.0955C99.4277 64.0955 98.4874 64.483 97.8364 65.258C97.1854 66.033 96.8599 67.1232 96.8599 68.5285C96.8599 69.9338 97.1854 71.0292 97.8364 71.8145C98.4874 72.5895 99.4277 72.977 100.657 72.977C101.277 72.977 101.841 72.8788 102.347 72.6825C102.864 72.4758 103.36 72.1503 103.835 71.706L104.331 72.7445C103.897 73.1888 103.36 73.535 102.719 73.783C102.078 74.0207 101.381 74.1395 100.626 74.1395ZM108.858 74V64.173H104.89V63.0725H114.113V64.173H110.145V74H108.858ZM115.501 74V63.0725H119.825C120.993 63.0725 121.892 63.3463 122.522 63.894C123.153 64.4417 123.468 65.2218 123.468 66.2345C123.468 66.8752 123.323 67.4332 123.034 67.9085C122.755 68.3735 122.342 68.73 121.794 68.978C121.246 69.2157 120.59 69.3345 119.825 69.3345L119.98 69.133H120.29C120.693 69.133 121.045 69.2363 121.344 69.443C121.644 69.6497 121.918 69.9803 122.166 70.435L124.088 74H122.693L120.802 70.497C120.647 70.2077 120.471 69.9803 120.275 69.815C120.089 69.6497 119.872 69.536 119.624 69.474C119.386 69.412 119.097 69.381 118.756 69.381H116.772V74H115.501ZM116.772 68.3735H119.639C120.487 68.3735 121.127 68.1978 121.561 67.8465C121.995 67.4848 122.212 66.9475 122.212 66.2345C122.212 65.5422 121.995 65.0203 121.561 64.669C121.127 64.3073 120.487 64.1265 119.639 64.1265H116.772V68.3735ZM125.87 74V63.0725H127.141V74H125.87ZM134.563 74.1395C133.488 74.1395 132.569 73.9122 131.804 73.4575C131.039 73.0028 130.45 72.357 130.037 71.52C129.634 70.683 129.432 69.6858 129.432 68.5285C129.432 67.3712 129.634 66.3792 130.037 65.5525C130.45 64.7155 131.039 64.0697 131.804 63.615C132.569 63.1603 133.488 62.933 134.563 62.933C135.317 62.933 136.015 63.0518 136.655 63.2895C137.296 63.5272 137.833 63.8733 138.267 64.328L137.771 65.3665C137.296 64.9222 136.8 64.6018 136.283 64.4055C135.777 64.1988 135.214 64.0955 134.594 64.0955C133.364 64.0955 132.424 64.483 131.773 65.258C131.122 66.033 130.796 67.1232 130.796 68.5285C130.796 69.9338 131.122 71.0292 131.773 71.8145C132.424 72.5895 133.364 72.977 134.594 72.977C135.214 72.977 135.777 72.8788 136.283 72.6825C136.8 72.4758 137.296 72.1503 137.771 71.706L138.267 72.7445C137.833 73.1888 137.296 73.535 136.655 73.783C136.015 74.0207 135.317 74.1395 134.563 74.1395ZM138.938 74L143.759 63.0725H144.844L149.664 74H148.347L146.998 70.8845L147.618 71.21H140.953L141.589 70.8845L140.256 74H138.938ZM144.286 64.5605L141.79 70.435L141.418 70.1405H147.153L146.812 70.435L144.317 64.5605H144.286ZM151.284 74V63.0725H152.555V72.884H158.12V74H151.284ZM163.604 76.79V63.0725H165.541V76.79H163.604ZM171.089 74L175.909 63.0725H176.994L181.815 74H180.497L179.149 70.8845L179.769 71.21H173.104L173.739 70.8845L172.406 74H171.089ZM176.436 64.5605L173.941 70.435L173.569 70.1405H179.304L178.963 70.435L176.467 64.5605H176.436ZM183.435 74V63.0725H184.706V74H183.435ZM187.4 74V63.0725H191.725C192.893 63.0725 193.792 63.3463 194.422 63.894C195.052 64.4417 195.367 65.2218 195.367 66.2345C195.367 66.8752 195.223 67.4332 194.933 67.9085C194.654 68.3735 194.241 68.73 193.693 68.978C193.146 69.2157 192.49 69.3345 191.725 69.3345L191.88 69.133H192.19C192.593 69.133 192.944 69.2363 193.244 69.443C193.544 69.6497 193.817 69.9803 194.065 70.435L195.987 74H194.592L192.701 70.497C192.546 70.2077 192.371 69.9803 192.174 69.815C191.988 69.6497 191.771 69.536 191.523 69.474C191.286 69.412 190.996 69.381 190.655 69.381H188.671V74H187.4ZM188.671 68.3735H191.539C192.386 68.3735 193.027 68.1978 193.461 67.8465C193.895 67.4848 194.112 66.9475 194.112 66.2345C194.112 65.5422 193.895 65.0203 193.461 64.669C193.027 64.3073 192.386 64.1265 191.539 64.1265H188.671V68.3735ZM201.672 76.79V63.0725H203.61V76.79H201.672ZM213.745 74.1395C213.177 74.1395 212.64 74.0878 212.133 73.9845C211.637 73.8812 211.178 73.7365 210.754 73.5505C210.341 73.3542 209.963 73.1165 209.622 72.8375L210.072 71.8145C210.423 72.0728 210.78 72.295 211.141 72.481C211.513 72.6567 211.911 72.791 212.335 72.884C212.769 72.9667 213.239 73.008 213.745 73.008C214.675 73.008 215.363 72.8375 215.807 72.4965C216.262 72.1452 216.489 71.6853 216.489 71.117C216.489 70.8173 216.417 70.559 216.272 70.342C216.138 70.125 215.91 69.939 215.59 69.784C215.28 69.629 214.872 69.4998 214.365 69.3965L212.753 69.071C211.782 68.8643 211.054 68.5285 210.568 68.0635C210.093 67.5882 209.855 66.9578 209.855 66.1725C209.855 65.5215 210.02 64.9532 210.351 64.4675C210.692 63.9818 211.162 63.6047 211.761 63.336C212.371 63.0673 213.063 62.933 213.838 62.933C214.334 62.933 214.805 62.9847 215.249 63.088C215.693 63.1913 216.101 63.3463 216.473 63.553C216.856 63.7493 217.192 63.9922 217.481 64.2815L217.031 65.2735C216.566 64.8498 216.076 64.545 215.559 64.359C215.042 64.1627 214.464 64.0645 213.823 64.0645C213.275 64.0645 212.8 64.1472 212.397 64.3125C212.004 64.4778 211.694 64.7207 211.467 65.041C211.25 65.351 211.141 65.7127 211.141 66.126C211.141 66.622 211.291 67.0147 211.591 67.304C211.901 67.5933 212.402 67.8052 213.094 67.9395L214.706 68.2805C215.75 68.4975 216.52 68.8282 217.016 69.2725C217.522 69.7065 217.775 70.3007 217.775 71.055C217.775 71.6543 217.61 72.1917 217.279 72.667C216.959 73.132 216.494 73.4937 215.884 73.752C215.285 74.0103 214.572 74.1395 213.745 74.1395ZM224.336 74.1395C223.581 74.1395 222.894 74.0103 222.274 73.752C221.654 73.4833 221.127 73.1062 220.693 72.6205C220.259 72.1348 219.923 71.5458 219.686 70.8535C219.458 70.1612 219.345 69.3862 219.345 68.5285C219.345 67.6605 219.458 66.8855 219.686 66.2035C219.923 65.5112 220.259 64.9273 220.693 64.452C221.127 63.9663 221.649 63.5943 222.259 63.336C222.879 63.0673 223.571 62.933 224.336 62.933C225.111 62.933 225.803 63.0622 226.413 63.3205C227.033 63.5788 227.56 63.9508 227.994 64.4365C228.438 64.9222 228.774 65.5112 229.001 66.2035C229.239 66.8855 229.358 67.6553 229.358 68.513C229.358 69.381 229.239 70.1612 229.001 70.8535C228.763 71.5458 228.428 72.1348 227.994 72.6205C227.56 73.1062 227.033 73.4833 226.413 73.752C225.803 74.0103 225.111 74.1395 224.336 74.1395ZM224.336 73.008C225.121 73.008 225.782 72.8323 226.32 72.481C226.867 72.1297 227.286 71.6182 227.575 70.9465C227.864 70.2748 228.009 69.4688 228.009 68.5285C228.009 67.5778 227.864 66.7718 227.575 66.1105C227.286 65.4492 226.867 64.9428 226.32 64.5915C225.782 64.2402 225.121 64.0645 224.336 64.0645C223.571 64.0645 222.915 64.2402 222.367 64.5915C221.83 64.9428 221.416 65.4543 221.127 66.126C220.838 66.7873 220.693 67.5882 220.693 68.5285C220.693 69.4688 220.838 70.2748 221.127 70.9465C221.416 71.6078 221.83 72.1193 222.367 72.481C222.915 72.8323 223.571 73.008 224.336 73.008ZM231.63 74V63.0725H232.901V72.884H238.465V74H231.63ZM238.674 74L243.494 63.0725H244.579L249.4 74H248.082L246.734 70.8845L247.354 71.21H240.689L241.324 70.8845L239.991 74H238.674ZM244.021 64.5605L241.526 70.435L241.154 70.1405H246.889L246.548 70.435L244.052 64.5605H244.021ZM251.02 74V63.0725H255.344C256.512 63.0725 257.411 63.3463 258.041 63.894C258.672 64.4417 258.987 65.2218 258.987 66.2345C258.987 66.8752 258.842 67.4332 258.553 67.9085C258.274 68.3735 257.861 68.73 257.313 68.978C256.765 69.2157 256.109 69.3345 255.344 69.3345L255.499 69.133H255.809C256.212 69.133 256.564 69.2363 256.863 69.443C257.163 69.6497 257.437 69.9803 257.685 70.435L259.607 74H258.212L256.321 70.497C256.166 70.2077 255.99 69.9803 255.794 69.815C255.608 69.6497 255.391 69.536 255.143 69.474C254.905 69.412 254.616 69.381 254.275 69.381H252.291V74H251.02ZM252.291 68.3735H255.158C256.006 68.3735 256.646 68.1978 257.08 67.8465C257.514 67.4848 257.731 66.9475 257.731 66.2345C257.731 65.5422 257.514 65.0203 257.08 64.669C256.646 64.3073 256.006 64.1265 255.158 64.1265H252.291V68.3735Z" fill="black"/>
<path d="M34.335 22.5746C45.0854 25.9296 52.8884 35.9583 52.8887 47.809C52.8884 62.4068 41.049 74.2416 26.4443 74.2416L25.7617 74.2328C11.4726 73.8709 0.00025463 62.1787 0 47.809C0.000298041 35.9917 7.75934 25.9859 18.4629 22.6029L17.2178 28.4564C9.99179 31.9037 5.00027 39.2751 5 47.809C5.00026 59.6432 14.5989 69.2416 26.4443 69.2416C38.2897 69.2416 47.8884 59.6432 47.8887 47.809C47.8884 38.3661 41.7769 30.3466 33.2891 27.4916L34.335 22.5746ZM24.1953 8.76404C25.5756 8.76428 26.4617 9.85914 26.1748 11.2094L21.1973 34.6185H29.2744C30.655 34.6185 31.5418 35.7135 31.2549 37.0638L31.1953 37.3441C31.1871 37.3826 31.174 37.4203 31.1641 37.4584C31.1587 37.492 31.1557 37.5268 31.1484 37.5609L26.4824 59.5023C26.2527 60.5827 25.171 61.4584 24.0664 61.4584H22.7783C21.6738 61.4584 20.9646 60.5827 21.1943 59.5023L25.3867 39.7894H17.3086C15.9279 39.7894 15.0409 38.6946 15.3281 37.3441L15.3877 37.0638V37.0629L20.8857 11.2094C21.1731 9.85898 22.5256 8.76405 23.9062 8.76404H24.1953Z" fill="#4285F4"/>
</svg>
